# xmcd
#
# Track frame offsets: 
#        150
#        14457
#        31429
#        46568
#        60657
#        73169
#        81918
#        99446
#        109268
#        121428
#        132557
#        143555
#        158326
#        170578
#        174393
#        184550
#        190153
#        208705
#        232477
#
# Disc length: 4223 seconds
#
# Revision: 0
# Processed by: cddbd v1.4PL0 Copyright (c) Steve Scherf et al.
# Submitted via: ExactAudioCopy v0.90b4
#
DISCID=09107d13
DTITLE=Smoke Blues Band - Bald Eagle Moan
DYEAR=1993
DGENRE=Blues
TTITLE0=You Got Me Running
TTITLE1=My Baby's Sweeter
TTITLE2=It's Raining Here
TTITLE3=Mystery Train
TTITLE4=You Gotta Move
TTITLE5=Baby Please Don't Go
TTITLE6=Fever
TTITLE7=Walking Blues
TTITLE8=Too Much Alcohol
TTITLE9=Yonder's Wall
TTITLE10=Pledging My Time
TTITLE11=Motherless Childern
TTITLE12=That's Alright
TTITLE13=Pickle Jam
TTITLE14=Watch Yourself
TTITLE15=Warm Up Jam
TTITLE16=It Hurts Me Too
TTITLE17=Help Me
TTITLE18=Miller Jam
EXTD=
EXTT0=
EXTT1=
EXTT2=
EXTT3=
EXTT4=
EXTT5=
EXTT6=
EXTT7=
EXTT8=
EXTT9=
EXTT10=
EXTT11=
EXTT12=
EXTT13=
EXTT14=
EXTT15=
EXTT16=
EXTT17=
EXTT18=
PLAYORDER=
